<mxfile host="Electron" agent="Mozilla/5.0 (Macintosh; Intel Mac OS X 10_15_7) AppleWebKit/537.36 (KHTML, like Gecko) draw.io/26.0.16 Chrome/132.0.6834.196 Electron/34.2.0 Safari/537.36" version="26.0.16">
  <diagram name="Page-1" id="aM2BYi7dWH0HvxV25wdj">
    <mxGraphModel dx="637" dy="463" grid="1" gridSize="10" guides="1" tooltips="1" connect="1" arrows="1" fold="1" page="1" pageScale="1" pageWidth="827" pageHeight="1169" math="0" shadow="0">
      <root>
        <mxCell id="0" />
        <mxCell id="1" parent="0" />
        <mxCell id="PIvWspxzPkUkjGU2tAyo-17" value="" style="rounded=0;whiteSpace=wrap;html=1;fillColor=#dae8fc;dashed=1;strokeWidth=2;strokeColor=#000000;opacity=40;" vertex="1" parent="1">
          <mxGeometry x="150" y="240" width="520" height="210" as="geometry" />
        </mxCell>
        <mxCell id="PIvWspxzPkUkjGU2tAyo-4" value="" style="edgeStyle=orthogonalEdgeStyle;rounded=0;orthogonalLoop=1;jettySize=auto;html=1;" edge="1" parent="1" source="PIvWspxzPkUkjGU2tAyo-1" target="PIvWspxzPkUkjGU2tAyo-2">
          <mxGeometry relative="1" as="geometry" />
        </mxCell>
        <mxCell id="PIvWspxzPkUkjGU2tAyo-1" value="p_1" style="ellipse;whiteSpace=wrap;html=1;aspect=fixed;" vertex="1" parent="1">
          <mxGeometry x="190" y="320" width="80" height="80" as="geometry" />
        </mxCell>
        <mxCell id="PIvWspxzPkUkjGU2tAyo-5" style="edgeStyle=orthogonalEdgeStyle;rounded=0;orthogonalLoop=1;jettySize=auto;html=1;exitX=1;exitY=0.5;exitDx=0;exitDy=0;" edge="1" parent="1" source="PIvWspxzPkUkjGU2tAyo-2" target="PIvWspxzPkUkjGU2tAyo-3">
          <mxGeometry relative="1" as="geometry" />
        </mxCell>
        <mxCell id="PIvWspxzPkUkjGU2tAyo-2" value="p_2" style="ellipse;whiteSpace=wrap;html=1;aspect=fixed;" vertex="1" parent="1">
          <mxGeometry x="374" y="320" width="80" height="80" as="geometry" />
        </mxCell>
        <mxCell id="PIvWspxzPkUkjGU2tAyo-3" value="p_3" style="ellipse;whiteSpace=wrap;html=1;aspect=fixed;" vertex="1" parent="1">
          <mxGeometry x="580" y="320" width="80" height="80" as="geometry" />
        </mxCell>
        <mxCell id="PIvWspxzPkUkjGU2tAyo-7" value="" style="endArrow=classic;html=1;rounded=0;entryX=0;entryY=0;entryDx=0;entryDy=0;" edge="1" parent="1" target="PIvWspxzPkUkjGU2tAyo-1">
          <mxGeometry width="50" height="50" relative="1" as="geometry">
            <mxPoint x="120" y="332" as="sourcePoint" />
            <mxPoint x="440" y="390" as="targetPoint" />
            <Array as="points">
              <mxPoint x="170" y="332" />
            </Array>
          </mxGeometry>
        </mxCell>
        <mxCell id="PIvWspxzPkUkjGU2tAyo-8" value="" style="endArrow=classic;html=1;rounded=0;entryX=0;entryY=0.5;entryDx=0;entryDy=0;" edge="1" parent="1">
          <mxGeometry width="50" height="50" relative="1" as="geometry">
            <mxPoint x="660" y="359.5" as="sourcePoint" />
            <mxPoint x="730" y="359.5" as="targetPoint" />
          </mxGeometry>
        </mxCell>
        <mxCell id="PIvWspxzPkUkjGU2tAyo-10" value="" style="edgeStyle=segmentEdgeStyle;endArrow=classic;html=1;curved=0;rounded=0;endSize=8;startSize=8;entryX=0;entryY=1;entryDx=0;entryDy=0;" edge="1" parent="1" target="PIvWspxzPkUkjGU2tAyo-1">
          <mxGeometry width="50" height="50" relative="1" as="geometry">
            <mxPoint x="520" y="360" as="sourcePoint" />
            <mxPoint x="440" y="390" as="targetPoint" />
            <Array as="points">
              <mxPoint x="520" y="440" />
              <mxPoint x="160" y="440" />
              <mxPoint x="160" y="388" />
            </Array>
          </mxGeometry>
        </mxCell>
        <mxCell id="PIvWspxzPkUkjGU2tAyo-11" value="" style="edgeStyle=segmentEdgeStyle;endArrow=classic;html=1;curved=0;rounded=0;endSize=8;startSize=8;entryX=0;entryY=0;entryDx=0;entryDy=0;" edge="1" parent="1" target="PIvWspxzPkUkjGU2tAyo-3">
          <mxGeometry width="50" height="50" relative="1" as="geometry">
            <mxPoint x="160" y="330" as="sourcePoint" />
            <mxPoint x="210" y="240" as="targetPoint" />
            <Array as="points">
              <mxPoint x="160" y="260" />
              <mxPoint x="520" y="260" />
              <mxPoint x="520" y="332" />
            </Array>
          </mxGeometry>
        </mxCell>
        <mxCell id="PIvWspxzPkUkjGU2tAyo-12" value="s_in" style="text;html=1;align=center;verticalAlign=middle;whiteSpace=wrap;rounded=0;" vertex="1" parent="1">
          <mxGeometry x="100" y="300" width="60" height="30" as="geometry" />
        </mxCell>
        <mxCell id="PIvWspxzPkUkjGU2tAyo-13" value="s_out" style="text;html=1;align=center;verticalAlign=middle;whiteSpace=wrap;rounded=0;" vertex="1" parent="1">
          <mxGeometry x="660" y="330" width="60" height="30" as="geometry" />
        </mxCell>
        <mxCell id="PIvWspxzPkUkjGU2tAyo-14" value="s_nextstate" style="text;html=1;align=center;verticalAlign=middle;whiteSpace=wrap;rounded=0;" vertex="1" parent="1">
          <mxGeometry x="290" y="330" width="60" height="30" as="geometry" />
        </mxCell>
        <mxCell id="PIvWspxzPkUkjGU2tAyo-15" value="s_state" style="text;html=1;align=center;verticalAlign=middle;whiteSpace=wrap;rounded=0;" vertex="1" parent="1">
          <mxGeometry x="470" y="330" width="60" height="30" as="geometry" />
        </mxCell>
        <mxCell id="PIvWspxzPkUkjGU2tAyo-18" value="&lt;b&gt;counter&lt;/b&gt;" style="text;html=1;align=center;verticalAlign=middle;whiteSpace=wrap;rounded=0;" vertex="1" parent="1">
          <mxGeometry x="360" y="210" width="60" height="30" as="geometry" />
        </mxCell>
      </root>
    </mxGraphModel>
  </diagram>
</mxfile>
